<svg width="64" height="64" viewBox="0 0 64 64" xmlns="http://www.w3.org/2000/svg" fill="none">
  <defs>
    <linearGradient id="shieldGrad" x1="9" y1="7" x2="55" y2="57" gradientUnits="userSpaceOnUse">
      <stop offset="0%" stop-color="#7dd3fc" />
      <stop offset="48%" stop-color="#38bdf8" />
      <stop offset="100%" stop-color="#60a5fa" />
    </linearGradient>
    <linearGradient id="lineGrad" x1="18" y1="40" x2="46" y2="23" gradientUnits="userSpaceOnUse">
      <stop offset="0%" stop-color="#e0f2fe" />
      <stop offset="100%" stop-color="#ffffff" />
    </linearGradient>
  </defs>
  <path d="M32 5L52 13.2C53.4 13.8 54.3 15.1 54.3 16.7V33.2C54.3 42.8 46.5 51.7 32 59C17.5 51.7 9.7 42.8 9.7 33.2V16.7C9.7 15.1 10.6 13.8 12 13.2L32 5Z" fill="url(#shieldGrad)"/>
  <path d="M32 8.8L49.3 16V32.5C49.3 40.1 43.1 47.3 32 53.3C20.9 47.3 14.7 40.1 14.7 32.5V16L32 8.8Z" fill="rgba(255,255,255,0.09)"/>
  <path d="M18 40L24.1 33.9L30.5 36.5L39.2 25.3L46 28.1" stroke="url(#lineGrad)" stroke-width="3" stroke-linecap="round" stroke-linejoin="round"/>
  <circle cx="24.1" cy="33.9" r="1.9" fill="white" fill-opacity="0.88"/>
  <circle cx="39.2" cy="25.3" r="2.2" fill="white" fill-opacity="0.98"/>
  <circle cx="46" cy="28.1" r="1.8" fill="white" fill-opacity="0.9"/>
</svg>
